<svg xmlns="http://www.w3.org/2000/svg" viewBox="0 0 120 48" role="img" aria-label="Corporate Affairs Commission Nigeria">
  <defs>
    <linearGradient id="cac-green" x1="0%" y1="0%" x2="100%" y2="100%">
      <stop offset="0%" stop-color="#0a8f4a"/>
      <stop offset="100%" stop-color="#006838"/>
    </linearGradient>
  </defs>
  <g fill="none" fill-rule="evenodd">
    <path
      d="M8 4h32c2.2 0 4 1.8 4 4v32c0 2.2-1.8 4-4 4H8c-2.2 0-4-1.8-4-4V8c0-2.2 1.8-4 4-4z"
      fill="url(#cac-green)"
    />
    <path
      d="M24 10c5.5 0 10 4.5 10 10s-4.5 10-10 10-10-4.5-10-10 4.5-10 10-10zm0 3.5a6.5 6.5 0 1 0 0 13 6.5 6.5 0 0 0 0-13z"
      fill="#ffffff"
      opacity="0.95"
    />
    <text
      x="24"
      y="27"
      text-anchor="middle"
      font-family="Arial, Helvetica, sans-serif"
      font-size="9"
      font-weight="700"
      fill="#006838"
    >CAC</text>
    <text
      x="52"
      y="18"
      font-family="Arial, Helvetica, sans-serif"
      font-size="7.5"
      font-weight="700"
      fill="currentColor"
      letter-spacing="0.02em"
    >CORPORATE AFFAIRS</text>
    <text
      x="52"
      y="30"
      font-family="Arial, Helvetica, sans-serif"
      font-size="7.5"
      font-weight="700"
      fill="currentColor"
      letter-spacing="0.02em"
    >COMMISSION</text>
    <text
      x="52"
      y="42"
      font-family="Arial, Helvetica, sans-serif"
      font-size="6.5"
      fill="currentColor"
      opacity="0.75"
    >Federal Republic of Nigeria</text>
  </g>
</svg>
